<svg width="36" height="35" viewBox="0 0 36 35" fill="none" xmlns="http://www.w3.org/2000/svg">
<path d="M21.7597 28.6965C24.0711 29.9616 26.1037 28.4283 25.6617 25.7449L24.868 20.9269L28.2302 17.5148C30.1001 15.6171 29.3276 13.1305 26.7398 12.7391L22.0933 12.0361L20.0257 7.67421C18.8675 5.23088 16.3527 5.2046 15.1923 7.65253L13.1144 12.0361L8.46793 12.7391C5.88379 13.13 5.10497 15.6144 6.97751 17.5148L10.3397 20.9269L9.54599 25.7449C9.10457 28.4245 11.1334 29.9634 13.448 28.6965L17.6038 26.4218L21.7597 28.6965Z" fill="#6C5FBC"/>
<mask id="mask0_1_14254" style="mask-type:luminance" maskUnits="userSpaceOnUse" x="5" y="5" width="25" height="25">
<path d="M21.7597 28.6965C24.0711 29.9616 26.1037 28.4283 25.6617 25.7449L24.868 20.9269L28.2302 17.5148C30.1001 15.6171 29.3276 13.1305 26.7398 12.7391L22.0933 12.0361L20.0257 7.67421C18.8675 5.23088 16.3527 5.2046 15.1923 7.65253L13.1144 12.0361L8.46793 12.7391C5.88379 13.13 5.10497 15.6144 6.97751 17.5148L10.3397 20.9269L9.54599 25.7449C9.10457 28.4245 11.1334 29.9634 13.448 28.6965L17.6038 26.4218L21.7597 28.6965Z" fill="white"/>
</mask>
<g mask="url(#mask0_1_14254)">
</g>
</svg>
